<svg xmlns="http://www.w3.org/2000/svg" width="200" height="200" viewBox="0 0 200 200">
  <!-- 背景 -->
  <rect width="200" height="200" fill="white" />
  
  <!-- 二维码外框 -->
  <rect x="10" y="10" width="180" height="180" fill="white" stroke="#07c160" stroke-width="2" />
  
  <!-- 二维码图案 - 简化版 -->
  <!-- 左上角定位图案 -->
  <rect x="25" y="25" width="30" height="30" fill="#07c160" />
  <rect x="30" y="30" width="20" height="20" fill="white" />
  <rect x="35" y="35" width="10" height="10" fill="#07c160" />
  
  <!-- 右上角定位图案 -->
  <rect x="145" y="25" width="30" height="30" fill="#07c160" />
  <rect x="150" y="30" width="20" height="20" fill="white" />
  <rect x="155" y="35" width="10" height="10" fill="#07c160" />
  
  <!-- 左下角定位图案 -->
  <rect x="25" y="145" width="30" height="30" fill="#07c160" />
  <rect x="30" y="150" width="20" height="20" fill="white" />
  <rect x="35" y="155" width="10" height="10" fill="#07c160" />
  
  <!-- 随机二维码点阵 -->
  <g fill="#07c160">
    <!-- 随机生成的点阵，模拟二维码数据 -->
    <rect x="70" y="25" width="5" height="5" />
    <rect x="80" y="25" width="5" height="5" />
    <rect x="90" y="30" width="5" height="5" />
    <rect x="65" y="35" width="5" height="5" />
    <rect x="75" y="40" width="5" height="5" />
    <rect x="95" y="40" width="5" height="5" />
    <rect x="105" y="45" width="5" height="5" />
    <rect x="60" y="50" width="5" height="5" />
    <rect x="85" y="50" width="5" height="5" />
    <rect x="100" y="55" width="5" height="5" />
    <rect x="110" y="60" width="5" height="5" />
    <rect x="70" y="65" width="5" height="5" />
    <rect x="90" y="70" width="5" height="5" />
    <rect x="105" y="75" width="5" height="5" />
    <rect x="65" y="80" width="5" height="5" />
    <rect x="80" y="85" width="5" height="5" />
    <rect x="95" y="90" width="5" height="5" />
    <rect x="110" y="95" width="5" height="5" />
    <rect x="75" y="100" width="5" height="5" />
    <rect x="85" y="105" width="5" height="5" />
    <rect x="100" y="110" width="5" height="5" />
    <rect x="65" y="115" width="5" height="5" />
    <rect x="80" y="120" width="5" height="5" />
    <rect x="95" y="125" width="5" height="5" />
    <rect x="110" y="130" width="5" height="5" />
    <rect x="70" y="135" width="5" height="5" />
    <rect x="85" y="140" width="5" height="5" />
    <rect x="100" y="145" width="5" height="5" />
    <rect x="115" y="25" width="5" height="5" />
    <rect x="125" y="30" width="5" height="5" />
    <rect x="120" y="40" width="5" height="5" />
    <rect x="130" y="45" width="5" height="5" />
    <rect x="115" y="55" width="5" height="5" />
    <rect x="125" y="60" width="5" height="5" />
    <rect x="135" y="65" width="5" height="5" />
    <rect x="120" y="75" width="5" height="5" />
    <rect x="130" y="80" width="5" height="5" />
    <rect x="140" y="85" width="5" height="5" />
    <rect x="125" y="95" width="5" height="5" />
    <rect x="135" y="100" width="5" height="5" />
    <rect x="145" y="105" width="5" height="5" />
    <rect x="120" y="115" width="5" height="5" />
    <rect x="130" y="120" width="5" height="5" />
    <rect x="140" y="125" width="5" height="5" />
    <rect x="125" y="135" width="5" height="5" />
    <rect x="135" y="140" width="5" height="5" />
  </g>
  
  <!-- 微信Logo -->
  <circle cx="100" cy="100" r="20" fill="white" />
  <path d="M90,95 Q100,85 110,95" stroke="#07c160" stroke-width="2" fill="none" />
  <path d="M90,105 Q100,115 110,105" stroke="#07c160" stroke-width="2" fill="none" />
</svg> 